<svg width="794" height="248" viewBox="0 0 794 248" fill="none" xmlns="http://www.w3.org/2000/svg">
<g clip-path="url(#clip0_1_71)">
<path d="M789.37 0H4C1.79086 0 0 1.79086 0 4V244C0 246.209 1.79086 248 4 248H789.37C791.579 248 793.37 246.209 793.37 244V4C793.37 1.79086 791.579 0 789.37 0Z" fill="white"/>
<path d="M220.88 185C220.6 185.009 220.321 184.961 220.06 184.86C219.802 184.758 219.567 184.605 219.37 184.41C219.179 184.211 219.029 183.977 218.93 183.72C218.824 183.464 218.776 183.187 218.79 182.91V128.68C218.775 128.403 218.823 128.126 218.93 127.87C219.027 127.612 219.177 127.377 219.37 127.18C219.567 126.985 219.802 126.832 220.06 126.73C220.321 126.629 220.6 126.581 220.88 126.59H258.11C258.388 126.577 258.665 126.622 258.925 126.723C259.184 126.823 259.42 126.977 259.616 127.174C259.813 127.37 259.966 127.606 260.067 127.865C260.167 128.125 260.213 128.402 260.2 128.68V135.77C260.214 136.047 260.166 136.324 260.06 136.58C259.96 136.837 259.811 137.071 259.62 137.27C259.423 137.465 259.188 137.618 258.93 137.72C258.669 137.821 258.39 137.869 258.11 137.86H231.81V152H256.45C256.727 151.989 257.004 152.036 257.262 152.137C257.52 152.239 257.755 152.393 257.95 152.59C258.141 152.789 258.291 153.024 258.391 153.282C258.49 153.539 258.538 153.814 258.53 154.09V161.15C258.54 161.414 258.492 161.677 258.39 161.92C258.288 162.164 258.138 162.385 257.95 162.57C257.751 162.761 257.516 162.911 257.258 163.011C257.001 163.11 256.726 163.158 256.45 163.15H231.81V182.9C231.821 183.176 231.777 183.451 231.68 183.71C231.577 183.967 231.424 184.202 231.23 184.4C231.03 184.592 230.796 184.744 230.54 184.85C230.278 184.948 229.999 184.992 229.72 184.98L220.88 185Z" fill="black"/>
<path d="M269.83 185C269.569 185 269.311 184.949 269.07 184.85C268.824 184.752 268.602 184.602 268.42 184.41C268.221 184.216 268.067 183.98 267.97 183.72C267.868 183.463 267.82 183.187 267.83 182.91V143.7C267.829 143.43 267.88 143.161 267.98 142.91C268.083 142.661 268.232 142.433 268.42 142.24C268.6 142.042 268.817 141.882 269.06 141.77C269.304 141.666 269.565 141.612 269.83 141.61H278C278.275 141.612 278.547 141.67 278.8 141.78C279.049 141.887 279.273 142.044 279.46 142.24C279.66 142.428 279.817 142.656 279.92 142.91C280.03 143.159 280.088 143.428 280.09 143.7V147C281.458 145.279 283.217 143.907 285.22 143C287.436 142.01 289.843 141.522 292.27 141.57H295.86C296.124 141.569 296.386 141.62 296.63 141.72C296.877 141.821 297.102 141.971 297.29 142.16C297.481 142.359 297.631 142.593 297.73 142.85C297.832 143.107 297.88 143.383 297.87 143.66V150.84C297.883 151.116 297.839 151.392 297.74 151.65C297.633 151.905 297.481 152.139 297.29 152.34C297.105 152.528 296.884 152.678 296.64 152.78C296.392 152.88 296.127 152.931 295.86 152.93H288.59C287.544 152.871 286.497 153.02 285.51 153.37C284.017 153.914 282.743 154.932 281.883 156.268C281.024 157.605 280.626 159.186 280.75 160.77V182.86C280.759 183.14 280.711 183.419 280.61 183.68C280.508 183.938 280.355 184.173 280.16 184.37C279.961 184.561 279.726 184.711 279.468 184.811C279.211 184.91 278.936 184.958 278.66 184.95L269.83 185Z" fill="black"/>
<path d="M316.23 185.87C313.49 185.914 310.776 185.325 308.3 184.15C306.07 183.108 304.143 181.514 302.7 179.52C301.812 178.308 301.177 176.93 300.833 175.468C300.488 174.006 300.442 172.489 300.695 171.008C300.949 169.528 301.498 168.113 302.31 166.849C303.122 165.585 304.179 164.497 305.42 163.65C309.226 161.155 313.554 159.564 318.07 159L329 157.4V155.9C329.117 154.107 328.584 152.332 327.5 150.9C326.5 149.73 324.75 149.15 322.24 149.15C320.691 149.081 319.156 149.463 317.82 150.25C316.724 150.952 315.833 151.932 315.24 153.09C315.051 153.433 314.77 153.716 314.43 153.91C314.094 154.106 313.709 154.203 313.32 154.19H305.38C305.122 154.209 304.862 154.172 304.62 154.08C304.375 153.986 304.153 153.839 303.97 153.65C303.809 153.478 303.686 153.273 303.61 153.05C303.54 152.827 303.52 152.592 303.55 152.36C303.639 151.183 304.017 150.046 304.65 149.05C305.521 147.598 306.646 146.315 307.97 145.26C309.687 143.884 311.634 142.821 313.72 142.12C316.499 141.221 319.41 140.799 322.33 140.87C325.377 140.81 328.415 141.232 331.33 142.12C333.573 142.809 335.626 144.007 337.33 145.62C338.808 147.098 339.942 148.883 340.65 150.85C341.394 152.894 341.766 155.055 341.75 157.23V183C341.761 183.276 341.717 183.551 341.62 183.81C341.517 184.067 341.364 184.302 341.17 184.5C340.968 184.694 340.73 184.847 340.47 184.95C340.212 185.049 339.936 185.093 339.66 185.08H331.49C331.226 185.09 330.964 185.042 330.72 184.94C330.473 184.839 330.248 184.689 330.06 184.5C329.869 184.301 329.719 184.066 329.619 183.808C329.52 183.551 329.472 183.276 329.48 183V179.88C328.681 181.036 327.694 182.05 326.56 182.88C325.22 183.858 323.726 184.604 322.14 185.09C320.223 185.656 318.229 185.92 316.23 185.87ZM319.55 177.18C321.263 177.215 322.956 176.813 324.47 176.01C325.953 175.191 327.149 173.938 327.9 172.42C328.793 170.518 329.218 168.43 329.14 166.33V164.91L321.41 166.16C319.064 166.399 316.8 167.154 314.78 168.37C314.157 168.763 313.639 169.302 313.27 169.94C312.908 170.585 312.713 171.31 312.7 172.05C312.691 173.057 313.046 174.034 313.7 174.8C314.377 175.618 315.266 176.234 316.27 176.58C317.32 176.97 318.43 177.173 319.55 177.18Z" fill="black"/>
<path d="M371.14 185.87C367.445 185.957 363.779 185.202 360.42 183.66C357.406 182.222 354.871 179.944 353.12 177.1C351.271 173.974 350.261 170.422 350.19 166.79C350.13 165.9 350.11 164.79 350.11 163.41C350.11 162.03 350.11 160.92 350.19 160.03C350.243 156.374 351.235 152.793 353.07 149.63C354.815 146.776 357.361 144.498 360.39 143.08C363.761 141.543 367.436 140.787 371.14 140.87C374.386 140.787 377.618 141.313 380.67 142.42C383.039 143.296 385.221 144.612 387.1 146.3C388.632 147.679 389.891 149.335 390.81 151.18C391.521 152.556 391.959 154.057 392.1 155.6C392.132 155.871 392.097 156.145 392 156.4C391.907 156.655 391.757 156.884 391.56 157.07C391.367 157.263 391.14 157.419 390.89 157.53C390.639 157.633 390.371 157.687 390.1 157.69H381.16C380.687 157.71 380.224 157.545 379.87 157.23C379.511 156.851 379.217 156.415 379 155.94C378.437 154.283 377.392 152.831 376 151.77C374.635 150.89 373.033 150.45 371.41 150.51C370.304 150.453 369.2 150.64 368.175 151.058C367.15 151.476 366.23 152.116 365.48 152.93C364.03 154.55 363.27 157.05 363.15 160.45C363.09 162.66 363.09 164.59 363.15 166.37C363.31 169.83 364.15 172.32 365.52 173.88C366.273 174.674 367.19 175.295 368.207 175.699C369.224 176.103 370.317 176.281 371.41 176.22C373.058 176.302 374.69 175.868 376.08 174.98C377.425 173.887 378.436 172.439 379 170.8C379.173 170.311 379.457 169.87 379.83 169.51C380.197 169.189 380.673 169.021 381.16 169.04H390.1C390.651 169.049 391.175 169.276 391.56 169.67C391.759 169.854 391.91 170.084 392 170.34C392.098 170.591 392.132 170.862 392.1 171.13C391.999 172.27 391.729 173.389 391.3 174.45C390.774 175.866 390.032 177.192 389.1 178.38C387.954 179.804 386.606 181.054 385.1 182.09C383.295 183.313 381.307 184.241 379.21 184.84C376.584 185.573 373.866 185.92 371.14 185.87Z" fill="black"/>
<path d="M419.56 185.87C415.865 185.957 412.199 185.202 408.84 183.66C405.825 182.219 403.287 179.942 401.53 177.1C399.678 173.976 398.675 170.422 398.62 166.79C398.55 165.9 398.53 164.79 398.53 163.41C398.53 162.03 398.53 160.92 398.62 160.03C398.672 156.375 399.66 152.795 401.49 149.63C403.234 146.779 405.775 144.502 408.8 143.08C412.175 141.544 415.853 140.789 419.56 140.87C422.802 140.786 426.032 141.312 429.08 142.42C431.45 143.294 433.632 144.611 435.51 146.3C437.048 147.676 438.311 149.332 439.23 151.18C439.941 152.556 440.379 154.057 440.52 155.6C440.552 155.871 440.517 156.145 440.42 156.4C440.324 156.653 440.174 156.881 439.98 157.07C439.787 157.263 439.56 157.419 439.31 157.53C439.059 157.633 438.791 157.687 438.52 157.69H429.58C429.106 157.713 428.643 157.547 428.29 157.23C427.931 156.851 427.637 156.415 427.42 155.94C426.857 154.283 425.813 152.831 424.42 151.77C423.055 150.89 421.453 150.45 419.83 150.51C418.726 150.45 417.622 150.638 416.6 151.06C415.572 151.469 414.652 152.109 413.91 152.93C412.45 154.55 411.7 157.05 411.56 160.45V166.37C411.73 169.83 412.56 172.32 413.94 173.88C414.691 174.676 415.608 175.298 416.626 175.703C417.643 176.107 418.737 176.284 419.83 176.22C421.478 176.302 423.11 175.868 424.5 174.98C425.848 173.888 426.863 172.44 427.43 170.8C427.603 170.314 427.883 169.873 428.25 169.51C428.621 169.189 429.1 169.021 429.59 169.04H438.53C438.802 169.042 439.071 169.1 439.32 169.21C439.572 169.317 439.799 169.474 439.99 169.67C440.186 169.857 440.336 170.086 440.43 170.34C440.528 170.591 440.563 170.862 440.53 171.13C440.423 172.268 440.157 173.385 439.74 174.45C439.189 175.866 438.427 177.191 437.48 178.38C436.334 179.805 434.987 181.054 433.48 182.09C431.673 183.309 429.685 184.237 427.59 184.84C424.977 185.568 422.272 185.915 419.56 185.87Z" fill="black"/>
<path d="M450.46 134.94C450.196 134.949 449.934 134.901 449.69 134.8C449.444 134.702 449.222 134.552 449.04 134.36C448.846 134.161 448.693 133.924 448.592 133.665C448.49 133.405 448.442 133.128 448.45 132.85V126.17C448.44 125.597 448.651 125.042 449.04 124.62C449.221 124.426 449.438 124.269 449.68 124.16C449.927 124.056 450.192 124.004 450.46 124.01H459.22C459.508 123.999 459.794 124.05 460.06 124.16C460.325 124.265 460.566 124.422 460.77 124.62C460.968 124.826 461.127 125.067 461.24 125.33C461.34 125.599 461.391 125.883 461.39 126.17V132.85C461.4 133.131 461.349 133.411 461.24 133.67C461.129 133.928 460.97 134.163 460.77 134.36C460.345 134.742 459.791 134.95 459.22 134.94H450.46ZM450.7 185C450.439 185 450.181 184.949 449.94 184.85C449.694 184.752 449.472 184.602 449.29 184.41C449.091 184.216 448.937 183.98 448.84 183.72C448.738 183.463 448.69 183.187 448.7 182.91V143.7C448.692 143.423 448.74 143.148 448.84 142.89C448.941 142.631 449.094 142.396 449.29 142.2C449.472 142.008 449.694 141.858 449.94 141.76C450.181 141.661 450.439 141.61 450.7 141.61H459.05C459.33 141.601 459.609 141.649 459.87 141.75C460.126 141.856 460.36 142.008 460.56 142.2C460.751 142.399 460.901 142.634 461.001 142.892C461.1 143.149 461.148 143.424 461.14 143.7V182.94C461.153 183.216 461.109 183.492 461.01 183.75C460.903 184.005 460.75 184.239 460.56 184.44C460.363 184.635 460.128 184.788 459.87 184.89C459.609 184.991 459.33 185.039 459.05 185.03L450.7 185Z" fill="black"/>
<path d="M491.44 185.87C487.452 185.993 483.489 185.207 479.85 183.57C476.852 182.16 474.358 179.868 472.7 177C471.001 173.956 470.071 170.544 469.99 167.06C469.94 165.95 469.9 164.68 469.9 163.26C469.9 161.84 469.9 160.61 469.99 159.55C470.07 156.045 471.048 152.619 472.83 149.6C474.571 146.777 477.093 144.52 480.09 143.1C483.668 141.585 487.514 140.804 491.4 140.804C495.286 140.804 499.132 141.585 502.71 143.1C505.71 144.519 508.235 146.777 509.98 149.6C511.762 152.619 512.74 156.045 512.82 159.55C512.938 160.783 512.992 162.021 512.98 163.26C513.013 164.529 512.96 165.798 512.82 167.06C512.737 170.545 511.803 173.958 510.1 177C508.439 179.853 505.953 182.136 502.97 183.55C499.353 185.189 495.41 185.982 491.44 185.87ZM491.44 176.68C492.596 176.76 493.755 176.572 494.827 176.132C495.899 175.691 496.854 175.01 497.62 174.14C499.01 172.43 499.76 169.95 499.83 166.66C499.88 165.83 499.92 164.71 499.92 163.34C499.92 161.97 499.92 160.84 499.83 160.03C499.913 157.38 499.138 154.774 497.62 152.6C496.865 151.714 495.912 151.019 494.839 150.569C493.765 150.119 492.601 149.927 491.44 150.01C490.275 149.93 489.108 150.122 488.03 150.57C486.953 151.008 485.994 151.693 485.23 152.57C483.669 154.72 482.86 157.324 482.93 159.98C482.87 160.81 482.85 161.92 482.85 163.29C482.85 164.66 482.85 165.8 482.93 166.6C483.04 169.92 483.81 172.38 485.23 174.08C486.001 174.953 486.963 175.637 488.04 176.08C489.114 176.533 490.276 176.739 491.44 176.68Z" fill="black"/>
<path d="M523.76 185C523.493 185.001 523.228 184.95 522.98 184.85C522.736 184.748 522.515 184.598 522.33 184.41C522.136 184.212 521.983 183.977 521.88 183.72C521.778 183.463 521.73 183.187 521.74 182.91V143.7C521.735 143.142 521.946 142.605 522.33 142.2C522.515 142.012 522.736 141.862 522.98 141.76C523.228 141.66 523.493 141.609 523.76 141.61H531.93C532.207 141.6 532.483 141.648 532.74 141.75C532.997 141.853 533.232 142.006 533.43 142.2C533.626 142.396 533.78 142.631 533.88 142.89C533.98 143.148 534.028 143.423 534.02 143.7V147C535.557 145.152 537.465 143.646 539.62 142.58C542.232 141.328 545.105 140.717 548 140.8C551.014 140.733 553.988 141.494 556.6 143C559.129 144.53 561.161 146.76 562.45 149.42C563.951 152.616 564.677 156.121 564.57 159.65V183C564.579 183.28 564.531 183.559 564.43 183.82C564.322 184.077 564.162 184.309 563.96 184.5C563.564 184.877 563.037 185.089 562.49 185.09H553.65C553.373 185.1 553.097 185.052 552.84 184.95C552.581 184.849 552.346 184.696 552.15 184.5C551.954 184.304 551.801 184.069 551.7 183.81C551.598 183.553 551.55 183.277 551.56 183V160.16C551.711 157.685 550.958 155.24 549.44 153.28C548.653 152.431 547.686 151.768 546.61 151.34C545.534 150.914 544.375 150.736 543.22 150.82C542.062 150.764 540.905 150.954 539.826 151.378C538.747 151.802 537.77 152.45 536.96 153.28C535.303 155.175 534.459 157.647 534.61 160.16V183C534.622 183.277 534.577 183.553 534.477 183.811C534.378 184.069 534.225 184.304 534.03 184.5C533.848 184.692 533.626 184.842 533.38 184.94C533.136 185.04 532.874 185.091 532.61 185.09L523.76 185Z" fill="black"/>
<path d="M587.36 185.87C584.62 185.908 581.908 185.319 579.43 184.15C577.207 183.101 575.284 181.509 573.84 179.52C572.952 178.308 572.317 176.93 571.973 175.468C571.628 174.006 571.582 172.489 571.835 171.008C572.089 169.528 572.638 168.113 573.45 166.849C574.262 165.585 575.319 164.497 576.56 163.65C580.366 161.155 584.694 159.564 589.21 159L600.14 157.42V155.92C600.253 154.126 599.717 152.351 598.63 150.92C597.63 149.75 595.88 149.17 593.37 149.17C591.821 149.094 590.283 149.477 588.95 150.27C587.854 150.972 586.963 151.952 586.37 153.11C586.174 153.445 585.895 153.724 585.56 153.92C585.223 154.114 584.839 154.215 584.45 154.21H576.52C576.255 154.229 575.989 154.192 575.74 154.1C575.497 154.001 575.276 153.855 575.09 153.67C574.929 153.489 574.813 153.274 574.75 153.04C574.695 152.8 574.695 152.55 574.75 152.31C574.838 151.131 575.22 149.994 575.86 149C576.728 147.549 577.849 146.265 579.17 145.21C580.895 143.834 582.848 142.771 584.94 142.07C587.716 141.174 590.624 140.755 593.54 140.83C596.587 140.762 599.625 141.18 602.54 142.07C604.785 142.759 606.839 143.961 608.54 145.58C610.01 147.059 611.139 148.84 611.85 150.8C612.592 152.848 612.968 155.011 612.96 157.19V182.98C612.97 183.257 612.922 183.533 612.82 183.79C612.72 184.049 612.566 184.284 612.37 184.48C612.174 184.676 611.939 184.829 611.68 184.93C611.423 185.032 611.147 185.08 610.87 185.07H602.68C602.419 185.07 602.161 185.019 601.92 184.92C601.674 184.822 601.452 184.672 601.27 184.48C601.076 184.282 600.923 184.047 600.82 183.79C600.718 183.533 600.67 183.257 600.68 182.98V179.93C599.878 181.083 598.891 182.097 597.76 182.93C596.419 183.906 594.925 184.653 593.34 185.14C591.397 185.692 589.379 185.938 587.36 185.87ZM590.68 177.18C592.393 177.208 594.086 176.802 595.6 176C597.086 175.186 598.285 173.932 599.03 172.41C599.929 170.509 600.361 168.421 600.29 166.32V164.9L592.55 166.15C590.207 166.389 587.946 167.143 585.93 168.36C585.298 168.746 584.775 169.286 584.41 169.93C584.044 170.574 583.848 171.3 583.84 172.04C583.831 173.047 584.186 174.024 584.84 174.79C585.512 175.593 586.39 176.198 587.38 176.54C588.456 176.953 589.598 177.166 590.75 177.17L590.68 177.18Z" fill="black"/>
<path d="M625.1 185C624.823 185.01 624.547 184.962 624.29 184.86C624.03 184.763 623.794 184.609 623.6 184.41C623.404 184.214 623.251 183.979 623.15 183.72C623.048 183.463 623 183.187 623.01 182.91V127.81C623 127.533 623.048 127.257 623.15 127C623.251 126.741 623.404 126.506 623.6 126.31C623.794 126.111 624.03 125.957 624.29 125.86C624.548 125.761 624.824 125.717 625.1 125.73H633.45C633.714 125.73 633.975 125.781 634.22 125.88C634.462 125.981 634.68 126.13 634.86 126.32C635.056 126.516 635.21 126.751 635.31 127.01C635.412 127.267 635.46 127.543 635.45 127.82V183C635.46 183.277 635.412 183.553 635.31 183.81C635.11 184.316 634.718 184.722 634.22 184.94C633.975 185.039 633.714 185.09 633.45 185.09L625.1 185Z" fill="black"/>
<path d="M647.56 185C647.28 185.009 647.001 184.961 646.74 184.86C646.482 184.758 646.247 184.605 646.05 184.41C645.859 184.211 645.71 183.977 645.61 183.72C645.508 183.463 645.46 183.187 645.47 182.91V173.56C645.462 173.284 645.51 173.009 645.609 172.752C645.709 172.494 645.859 172.259 646.05 172.06C646.248 171.866 646.483 171.713 646.74 171.61C647 171.507 647.28 171.463 647.56 171.48H656.9C657.18 171.463 657.459 171.507 657.72 171.61C657.98 171.713 658.218 171.866 658.42 172.06C658.611 172.259 658.76 172.493 658.86 172.75C658.957 173.009 659.001 173.284 658.99 173.56V182.91C659.003 183.186 658.959 183.462 658.86 183.72C658.76 183.977 658.611 184.211 658.42 184.41C658.221 184.607 657.982 184.761 657.72 184.86C657.459 184.961 657.18 185.009 656.9 185H647.56Z" fill="black"/>
<path d="M687.8 185.87C684.099 185.957 680.426 185.202 677.06 183.66C674.028 182.213 671.481 179.917 669.73 177.05C667.872 173.928 666.865 170.373 666.81 166.74C666.81 165.85 666.72 164.74 666.72 163.37C666.72 162 666.72 160.88 666.81 159.99C666.871 156.33 667.877 152.747 669.73 149.59C671.456 146.729 673.984 144.438 677 143C680.377 141.458 684.059 140.703 687.77 140.79C691.016 140.69 694.252 141.199 697.31 142.29C699.68 143.164 701.862 144.481 703.74 146.17C705.276 147.55 706.541 149.205 707.47 151.05C708.181 152.426 708.619 153.927 708.76 155.47C708.787 155.741 708.753 156.014 708.66 156.27C708.56 156.521 708.41 156.749 708.22 156.94C708.029 157.136 707.802 157.293 707.55 157.4C707.295 157.502 707.024 157.556 706.75 157.56H697.75C697.516 157.572 697.281 157.538 697.06 157.46C696.843 157.381 696.643 157.262 696.47 157.11C696.11 156.724 695.81 156.286 695.58 155.81C695.018 154.152 693.973 152.7 692.58 151.64C691.215 150.76 689.613 150.32 687.99 150.38C686.885 150.325 685.781 150.514 684.756 150.932C683.732 151.35 682.811 151.988 682.06 152.8C680.61 154.42 679.85 156.92 679.72 160.32C679.66 162.53 679.66 164.46 679.72 166.24C679.89 169.7 680.72 172.24 682.11 173.75C682.858 174.547 683.773 175.168 684.79 175.57C685.804 175.981 686.898 176.158 687.99 176.09C689.641 176.177 691.278 175.743 692.67 174.85C694.01 173.755 695.018 172.307 695.58 170.67C695.76 170.183 696.047 169.742 696.42 169.38C696.785 169.057 697.263 168.892 697.75 168.92H706.68C706.955 168.912 707.229 168.967 707.48 169.08C707.739 169.185 707.971 169.345 708.16 169.55C708.352 169.736 708.502 169.961 708.6 170.21C708.688 170.463 708.723 170.733 708.7 171C708.595 172.139 708.326 173.258 707.9 174.32C707.363 175.732 706.618 177.057 705.69 178.25C704.555 179.713 703.207 180.997 701.69 182.06C699.887 183.281 697.903 184.209 695.81 184.81C693.205 185.545 690.507 185.902 687.8 185.87Z" fill="black"/>
<path d="M719 185C718.723 185.01 718.447 184.962 718.19 184.86C717.93 184.763 717.694 184.609 717.5 184.41C717.298 184.217 717.141 183.981 717.04 183.72C716.941 183.462 716.897 183.186 716.91 182.91V127.81C716.9 127.533 716.948 127.257 717.05 127C717.15 126.741 717.304 126.506 717.5 126.31C717.696 126.114 717.931 125.961 718.19 125.86C718.447 125.758 718.723 125.71 719 125.72H727.34C727.604 125.719 727.866 125.77 728.11 125.87C728.356 125.968 728.578 126.118 728.76 126.31C728.956 126.506 729.11 126.741 729.21 127C729.312 127.257 729.36 127.533 729.35 127.81V182.91C729.36 183.187 729.312 183.463 729.21 183.72C729.11 183.979 728.956 184.214 728.76 184.41C728.578 184.602 728.356 184.752 728.11 184.85C727.866 184.95 727.604 185.001 727.34 185H719Z" fill="black"/>
<path d="M185.88 62H128C127.436 62.0033 126.897 62.2298 126.5 62.63C126.106 63.0304 125.884 63.5684 125.88 64.13V92.93H95.22V64.13C95.2148 63.5667 94.9887 63.028 94.5904 62.6296C94.192 62.2313 93.6533 62.0052 93.09 62H66.09C65.532 62.0105 65.0005 62.2395 64.6097 62.6378C64.2188 63.0362 63.9999 63.572 64 64.13V91.13C64.0038 91.4075 64.058 91.6819 64.16 91.94C64.2661 92.1982 64.4223 92.4329 64.6198 92.6303C64.8172 92.8277 65.0518 92.9839 65.31 93.09C65.5678 93.1928 65.8424 93.2471 66.12 93.25H94.94V122C94.9438 122.562 95.1662 123.1 95.56 123.5C95.757 123.697 95.9909 123.853 96.2483 123.959C96.5057 124.066 96.7815 124.12 97.06 124.12H125.87V154.77H97.06C96.7803 154.771 96.5036 154.828 96.2456 154.936C95.9877 155.044 95.7536 155.202 95.5568 155.401C95.3599 155.6 95.2041 155.835 95.0983 156.094C94.9925 156.353 94.9387 156.63 94.94 156.91V183.86C94.9429 184.138 94.9972 184.412 95.1 184.67C95.2105 184.926 95.3663 185.16 95.56 185.36C95.7578 185.557 95.9922 185.713 96.25 185.82C96.5064 185.928 96.7819 185.982 97.06 185.98H124.06C124.623 185.98 125.163 185.757 125.563 185.36C125.962 184.962 126.187 184.423 126.19 183.86V155.07H155C155.563 155.07 156.103 154.847 156.503 154.45C156.902 154.052 157.127 153.513 157.13 152.95V126C157.125 125.437 156.899 124.898 156.5 124.5C156.102 124.101 155.563 123.875 155 123.87H126.2V93.21H185.93C186.492 93.2062 187.03 92.9838 187.43 92.59C187.83 92.1931 188.057 91.6537 188.06 91.09V64.09C188.044 63.525 187.807 62.989 187.399 62.5978C186.991 62.2067 186.445 61.9919 185.88 62Z" fill="black"/>
</g>
<defs>
<clipPath id="clip0_1_71">
<rect width="793.37" height="248" fill="white"/>
</clipPath>
</defs>
</svg>
